<svg version="1" xmlns="http://www.w3.org/2000/svg" width="822.667" height="822.667" viewBox="0 0 617.000000 617.000000"><path d="M56.3 35.1C41.3 49.5 29 61.6 29 62c0 .5 12.2 13.5 27 28.9 14.9 15.4 27 28.4 27 28.9s-.9 1.7-2.1 2.7c-3.3 3.1-18.5 23.6-24.9 33.8-61.1 97.2-61.1 219.3 0 316.3 5.2 8.3 10.7 15.8 22.1 30.8 1.6 2 1.1 2.7-23.7 28.6-14 14.6-25.4 26.8-25.4 27.1 0 .9 45 44.4 45.9 44.4.3 0 6.7-6.3 14.1-14 7.4-7.7 19-19.7 25.9-26.7l12.4-12.8 3.6 2.9c25.3 19.7 65.7 38.9 101.6 48.1 26.9 6.9 39.8 8.4 73 8.5 30.4 0 36.6-.5 59.5-5.1 41.7-8.3 83.9-27.1 117.6-52.5l9.6-7.2 4.2 4.4c2.4 2.4 15 15.5 28.1 29.2l23.7 24.7 12.7-12c6.9-6.6 19.5-18.6 27.8-26.7l15.3-14.8-29-30c-15.9-16.5-29-30.3-29-30.8 0-.4 2.6-4.6 5.8-9.5 9.2-13.7 12.7-19.9 20.6-36.4 19-39.3 27.8-75.4 29.3-119.3 2.1-66.8-18.4-132.5-57.9-185.3-4.9-6.4-8.8-11.9-8.8-12.2 0-.4 13.5-14.6 29.9-31.7l30-31.1-12.7-12.4c-7-6.8-17.5-17-23.3-22.6L548.3 18l-30.2 31.4-30.2 31.5-5.7-4.3C441.2 45.7 388 25.2 335.5 20c-14-1.4-46-1.4-59 0-46.1 5-86.5 18.7-125.9 42.7l-8.9 5.4-6.4-6.3c-3.5-3.5-16.4-16.8-28.6-29.5C94.5 19.5 84.3 9 84 9c-.3 0-12.8 11.8-27.7 26.1zM340 87.5c24.4 3.8 50.2 12.2 71.7 23.5 10.7 5.6 27.7 16.2 28.7 17.9.5.7-118.6 125.6-119.7 125.6-.2 0-30-30.8-66.2-68.4-61.1-63.6-65.6-68.5-63.9-69.8 1.1-.8 7.8-4.3 14.9-7.8C231.1 96 258.7 88.4 289 85.6c9.1-.8 40.8.4 51 1.9zM198.7 239.4l68.2 70.9-4.7 5.3c-2.6 2.9-34.2 35.9-70.2 73.3L126.5 457l-1.8-2.3c-6.8-8.5-19-28.3-24.7-40.1-37.6-77.1-28.8-168.8 22.7-237.8 3.7-4.9 6.9-8.7 7.3-8.6.3.2 31.3 32.2 68.7 71.2zm298.7-51.2c14.1 21.4 24.5 44.6 30.5 68.1 5.9 22.7 6.6 29 6.6 57.7 0 23.3-.3 28-2.3 39.3-4.2 23.4-11.4 45-21.3 64.4-6 11.6-11.8 21.3-12.7 21.3-.7 0-131.5-135.8-132-137-.3-.7 120.7-127 121.8-127 .4 0 4.6 5.9 9.4 13.2zM378.6 426.6c36.2 37.7 65.9 69.1 65.9 69.8 0 2-22.7 16.5-37 23.6-32.7 16.1-63.7 23.3-100.5 23.4-35.1.1-64.2-6.1-95.8-20.2-10.7-4.8-29.4-15.4-34.9-19.8l-2.6-2.1 68.9-71.6c37.9-39.4 69.2-71.7 69.5-71.7.3 0 30.3 30.9 66.5 68.6z"/></svg>